<?xml version="1.0" standalone="no"?>
<!DOCTYPE svg PUBLIC "-//W3C//DTD SVG 20010904//EN"
 "http://www.w3.org/TR/2001/REC-SVG-20010904/DTD/svg10.dtd">
<svg version="1.0" xmlns="http://www.w3.org/2000/svg"
 width="1242.000000pt" height="664.000000pt" viewBox="0 0 1242.000000 664.000000"
 preserveAspectRatio="xMidYMid meet">

<g transform="translate(0.000000,664.000000) scale(0.100000,-0.100000)"
fill="#000000" stroke="none">
<path d="M0 5072 c0 -1206 3 -1571 12 -1580 7 -7 19 -12 28 -12 9 0 25 -7 36
-15 18 -15 16 -16 -28 -13 l-48 3 0 -1727 0 -1728 6210 0 6210 0 0 3320 0
3320 -6210 0 -6210 0 0 -1568z m1630 1405 c12 3 22 -3 29 -16 16 -30 -2 -61
-34 -59 -24 2 -25 6 -24 58 1 30 4 45 6 34 3 -16 10 -20 23 -17z m790 -22 c0
-52 -1 -55 -25 -55 -15 0 -28 8 -35 23 -10 20 -10 20 3 5 21 -27 47 -23 47 7
0 29 -27 45 -42 24 -8 -12 -9 -11 -5 1 2 8 14 15 26 14 14 0 21 5 21 18 0 10
2 18 5 18 3 0 5 -25 5 -55z m6029 45 c20 10 21 8 21 -44 0 -49 -2 -54 -24 -60
-14 -3 -35 -2 -48 3 -13 5 -33 5 -45 0 -22 -8 -23 -6 -23 42 0 42 3 51 22 58
13 5 35 4 50 -1 18 -6 34 -6 47 2z m1324 -4 c3 -8 3 -23 0 -34 -6 -24 12 -37
49 -34 30 2 41 -8 32 -32 -18 -48 -124 31 -124 93 0 24 35 30 43 7z m1556 -12
c22 -28 27 -54 11 -54 -5 0 -11 8 -11 18 -1 15 -2 15 -6 0 -3 -14 -7 -13 -27
7 -12 12 -23 30 -23 39 0 25 33 19 56 -10z m-10704 -9 c1 -11 4 -26 9 -33 11
-18 -12 -42 -40 -42 -22 0 -24 4 -24 51 0 49 1 50 28 47 19 -2 27 -9 27 -23z
m762 -52 c-2 -16 -4 -3 -4 27 0 30 2 43 4 28 2 -16 2 -40 0 -55z m20 55 c-3
-8 -6 -5 -6 6 -1 11 2 17 5 13 3 -3 4 -12 1 -19z m85 -36 c14 -39 14 -43 1
-24 -8 12 -21 22 -28 22 -7 0 -20 -10 -29 -22 -16 -23 -16 -23 -6 5 33 93 34
93 62 19z m568 7 c0 -49 -1 -50 -27 -47 -25 3 -28 7 -28 38 0 29 4 36 23 38
12 2 22 8 22 13 0 5 2 9 5 9 3 0 5 -23 5 -51z m457 -1 c-2 -13 -4 -5 -4 17 -1
22 1 32 4 23 2 -10 2 -28 0 -40z m4921 0 l3 -48 -65 0 -66 0 0 43 c0 24 3 47
7 51 4 4 32 6 63 4 l55 -3 3 -47z m1469 -25 c-2 -16 -4 -3 -4 27 0 30 2 43 4
28 2 -16 2 -40 0 -55z m2690 0 c-2 -16 -4 -3 -4 27 0 30 2 43 4 28 2 -16 2
-40 0 -55z m-3977 53 c-19 -23 -8 -59 20 -68 25 -7 25 -7 1 -5 -13 1 -28 9
-34 18 -12 19 -1 69 14 69 8 0 8 -4 -1 -14z m1048 -27 c15 -1 15 -2 0 -6 -26
-6 -22 -31 5 -36 19 -4 18 -4 -5 -6 -27 -1 -28 1 -27 47 1 26 4 37 6 25 2 -13
12 -24 21 -24z m1372 37 c0 -3 -4 -8 -10 -11 -5 -3 -10 -1 -10 4 0 6 5 11 10
11 6 0 10 -2 10 -4z m28 -21 c-3 -3 -9 2 -12 12 -6 14 -5 15 5 6 7 -7 10 -15
7 -18z m73 -54 c-3 -10 -6 -11 -9 -3 -2 7 -12 12 -23 12 -10 0 -19 4 -19 9 0
5 9 7 20 4 16 -4 20 0 20 17 0 20 -2 21 -17 9 -13 -10 -13 -8 2 10 l20 23 5
-33 c4 -19 4 -41 1 -48z m85 67 c0 -7 4 -13 9 -13 6 0 9 6 9 13 -1 6 2 12 7
12 4 0 7 -13 6 -28 -1 -18 -8 -28 -17 -28 -8 1 -16 -3 -17 -9 -1 -5 6 -10 17
-9 10 0 17 -3 14 -8 -3 -4 -13 -8 -24 -8 -20 0 -35 26 -20 35 6 4 7 17 4 31
-3 13 -2 24 4 24 5 0 9 -6 8 -12z m65 -25 c-4 -28 -6 -32 -9 -15 -3 22 3 52
11 52 1 0 1 -17 -2 -37z m49 2 c0 -38 -11 -55 -34 -54 -20 0 -20 1 3 10 19 8
23 15 19 43 -2 19 0 32 4 30 4 -3 8 -16 8 -29z m112 0 c2 -19 0 -41 -4 -48 -6
-9 -8 -9 -8 0 0 6 -12 13 -26 15 -26 3 -26 3 -8 23 11 11 16 16 12 11 -13 -16
-9 -26 8 -26 12 0 15 7 12 30 -3 17 -1 30 3 30 4 0 9 -16 11 -35z m150 -6 c-4
-36 -2 -40 14 -37 23 4 31 43 14 64 -9 10 -9 14 -1 14 15 0 26 -50 14 -69 -17
-27 -48 -20 -51 12 -3 26 3 57 10 57 2 0 2 -18 0 -41z m69 4 c-4 -28 -6 -32
-9 -15 -3 22 3 52 11 52 1 0 1 -17 -2 -37z m49 2 c0 -38 -11 -55 -34 -54 -20
0 -20 1 3 10 19 8 23 15 19 43 -2 19 0 32 4 30 4 -3 8 -16 8 -29z m85 25 c-3
-5 -12 -10 -18 -10 -7 0 -6 4 3 10 19 12 23 12 15 0z m59 -5 c-4 -8 -1 -22 6
-30 11 -13 10 -14 -4 -9 -16 6 -22 35 -9 47 10 11 13 8 7 -8z m46 -24 c0 -30
-16 -51 -39 -50 -10 0 -8 4 6 9 18 7 22 16 19 44 -1 19 1 33 6 30 4 -3 8 -18
8 -33z m338 -4 c2 -20 8 -37 13 -37 5 0 6 12 3 28 -7 24 -6 26 9 13 36 -29 8
-83 -32 -61 -17 8 -21 20 -21 56 0 56 23 56 28 1z m287 3 c20 0 30 21 14 31
-11 7 -10 9 4 9 13 0 17 -7 15 -28 -2 -24 -6 -28 -25 -24 -17 3 -23 0 -23 -13
0 -13 6 -16 25 -13 13 3 22 1 19 -3 -3 -5 -16 -9 -30 -9 -22 0 -24 3 -23 48 1
26 4 37 6 25 2 -13 11 -23 18 -23z m-10878 -32 c-2 -13 -4 -3 -4 22 0 25 2 35
4 23 2 -13 2 -33 0 -45z m81 39 c3 -12 -3 -17 -22 -17 -32 0 -25 -29 8 -31 17
-1 18 -2 3 -6 -22 -6 -47 14 -47 36 0 38 51 54 58 18z m78 5 c1 -7 0 -8 -3 -2
-10 20 -33 10 -39 -17 -10 -48 -12 -49 -13 -7 -1 38 1 41 26 40 14 -1 28 -7
29 -14z m75 -9 c-12 -20 -14 -14 -5 12 4 9 9 14 11 11 3 -2 0 -13 -6 -23z m67
15 c19 -19 14 -28 -13 -28 -32 0 -34 -27 -2 -33 l22 -4 -22 -2 c-28 -1 -44 26
-32 57 9 24 28 29 47 10z m86 -4 c3 -9 5 -28 5 -42 -1 -23 -3 -21 -8 8 -4 22
-12 36 -23 38 -15 3 -18 -4 -19 -35 -2 -31 -3 -33 -6 -10 -3 16 -2 35 1 43 7
19 42 18 50 -2z m54 -52 c11 2 19 17 23 38 l6 35 2 -41 c1 -39 -1 -41 -26 -40
-25 1 -28 5 -29 36 l-1 35 4 -33 c3 -25 9 -32 21 -30z m102 64 c0 -2 3 -11 6
-20 5 -12 0 -16 -20 -16 -34 0 -35 -27 -1 -33 23 -4 23 -4 -2 -3 -21 1 -29 7
-31 24 -5 34 5 52 28 52 11 0 20 -2 20 -4z m118 -39 c3 -37 2 -38 -24 -35 -37
4 -42 25 -10 39 32 15 33 26 4 32 -20 5 -20 5 2 4 21 -2 25 -7 28 -40z m230
-25 c11 2 19 17 23 38 l6 35 2 -41 c1 -39 -1 -41 -26 -40 -25 1 -28 5 -29 36
l-1 35 4 -33 c3 -25 9 -32 21 -30z m190 45 c3 -13 -3 -17 -23 -17 -33 0 -29
-22 6 -31 24 -7 24 -7 -3 -8 -22 -1 -29 5 -34 24 -7 29 11 57 35 53 9 -2 17
-11 19 -21z m49 10 c-9 -7 -18 -25 -20 -42 -3 -25 -4 -23 -6 10 -1 35 2 41 20
42 19 2 19 0 6 -10z m78 -4 c-2 -10 -4 -21 -4 -25 -1 -5 -8 -8 -16 -8 -8 0
-15 -4 -15 -10 0 -5 9 -10 20 -10 13 0 20 -7 20 -20 0 -11 -4 -20 -10 -20 -5
0 -7 7 -4 15 4 11 0 15 -16 15 -16 0 -20 -4 -16 -15 3 -8 2 -15 -3 -15 -7 0
-8 52 -2 103 1 4 12 7 25 7 18 0 23 -5 21 -17z m73 5 c19 -19 14 -28 -13 -28
-32 0 -34 -27 -2 -33 l22 -4 -22 -2 c-28 -1 -44 26 -32 57 9 24 28 29 47 10z
m174 -56 c12 -2 18 5 21 30 4 33 4 33 5 -5 2 -36 0 -38 -25 -35 -25 3 -28 7
-30 43 l-1 40 6 -35 c4 -21 14 -36 24 -38z m188 59 c0 -5 -8 -8 -17 -7 -13 1
-20 -9 -24 -34 l-6 -35 -2 38 c-1 31 -4 38 -18 35 -12 -2 -20 -16 -24 -38 l-6
-35 -2 40 -1 41 50 1 c28 1 50 -2 50 -6z m37 -53 c-2 -13 -4 -3 -4 22 0 25 2
35 4 23 2 -13 2 -33 0 -45z m110 0 c-2 -13 -4 -3 -4 22 0 25 2 35 4 23 2 -13
2 -33 0 -45z m5405 44 c-15 -5 -16 -48 -2 -55 6 -3 5 -4 -2 -3 -7 1 -14 19
-16 39 -3 32 -1 36 14 30 11 -4 13 -8 6 -11z m172 -27 c1 -19 -2 -35 -5 -35
-8 0 -17 69 -10 75 9 9 14 -5 15 -40z m1388 27 c-15 -5 -16 -48 -2 -55 6 -3 5
-4 -2 -3 -7 1 -14 19 -16 39 -3 32 -1 36 14 30 11 -4 13 -8 6 -11z m-8539 -36
c4 4 7 2 7 -4 0 -26 -19 -20 -29 10 -14 41 -13 50 3 15 7 -15 15 -24 19 -21z
m6863 18 c8 -30 -6 -47 -32 -42 -35 6 -30 68 5 68 14 0 23 -9 27 -26z m74 17
c0 -5 -9 -7 -19 -4 -16 4 -20 -1 -24 -29 l-4 -33 -1 38 c-2 33 0 37 23 37 14
0 25 -4 25 -9z m103 2 c-7 -2 -19 -2 -25 0 -7 3 -2 5 12 5 14 0 19 -2 13 -5z
m60 -3 c-13 -5 -23 -16 -23 -25 0 -9 10 -20 23 -25 l22 -9 -22 0 c-13 -1 -24
7 -28 19 -8 24 10 50 34 49 11 0 9 -3 -6 -9z m823 -30 l2 -35 -5 33 c-2 19
-10 32 -19 32 -9 0 -15 -12 -16 -32 l-1 -33 -4 33 c-4 28 -8 33 -24 29 -10 -3
-17 -1 -14 3 3 5 22 8 43 7 35 -2 37 -4 38 -37z m55 -20 c13 0 19 7 19 24 0
14 -6 26 -12 29 -8 2 -7 3 2 3 10 -1 15 -12 15 -31 0 -23 -5 -31 -22 -33 -12
-2 -24 -11 -26 -20 -3 -9 -4 8 -4 38 0 31 2 41 4 23 3 -25 9 -33 24 -33z m112
53 c-7 -2 -19 -2 -25 0 -7 3 -2 5 12 5 14 0 19 -2 13 -5z m60 -3 c-13 -5 -23
-16 -23 -25 0 -9 10 -20 23 -25 l22 -9 -22 0 c-13 -1 -24 7 -28 19 -8 24 10
50 34 49 11 0 9 -3 -6 -9z m85 -13 c2 -12 -3 -17 -17 -17 -28 0 -27 -20 2 -21
19 -1 20 -2 3 -6 -27 -7 -49 23 -35 49 12 23 42 20 47 -5z m112 13 c0 -4 -8
-7 -17 -6 -12 1 -20 -9 -24 -29 l-7 -30 -1 33 c-1 21 -6 32 -15 32 -9 0 -16
-13 -19 -32 l-4 -33 -1 37 -2 36 45 0 c25 -1 45 -4 45 -8z m78 -12 c2 -12 -5
-18 -25 -20 l-28 -4 25 -11 c24 -11 24 -12 3 -12 -26 -1 -40 33 -22 55 15 19
43 14 47 -8z m68 -18 l2 -35 -5 33 c-4 30 -33 48 -33 20 0 -6 -3 -9 -6 -5 -10
10 7 28 24 25 12 -2 17 -14 18 -38z m1155 14 c18 -22 3 -44 -28 -43 l-28 2 28
4 c34 5 34 36 -1 41 -12 2 -22 7 -22 12 0 12 37 0 51 -16z m1155 0 c8 -30 -6
-47 -32 -42 -35 6 -30 68 5 68 14 0 23 -9 27 -26z m70 19 c-10 -10 -46 -11
-46 -1 0 4 12 8 27 8 14 0 23 -3 19 -7z m-9439 -50 c-3 -10 -5 -4 -5 12 0 17
2 24 5 18 2 -7 2 -21 0 -30z m5623 13 c0 -19 -5 -23 -27 -22 -50 2 -37 26 25
45 1 1 2 -10 2 -23z m1050 0 c0 -19 -5 -23 -27 -22 -50 2 -37 26 25 45 1 1 2
-10 2 -23z m247 -18 c-3 -7 -5 -2 -5 12 0 14 2 19 5 13 2 -7 2 -19 0 -25z
m960 26 c-3 -3 -12 -4 -19 -1 -8 3 -5 6 6 6 11 1 17 -2 13 -5z m190 0 c-3 -3
-12 -4 -19 -1 -8 3 -5 6 6 6 11 1 17 -2 13 -5z m190 0 c-3 -3 -12 -4 -19 -1
-8 3 -5 6 6 6 11 1 17 -2 13 -5z m190 0 c-3 -3 -12 -4 -19 -1 -8 3 -5 6 6 6
11 1 17 -2 13 -5z m958 -14 c-3 -4 5 -10 16 -13 12 -3 19 -12 17 -19 -6 -17
-53 -17 -52 0 1 6 2 21 3 33 0 11 6 17 11 14 6 -4 8 -10 5 -15z m-1650 -9 c-8
-13 -32 -14 -39 -2 -4 5 3 7 14 4 12 -3 20 0 20 8 0 7 3 10 6 6 3 -3 3 -10 -1
-16z m-8369 -538 c42 -21 104 -102 104 -135 0 -10 -4 -17 -9 -14 -5 4 -11 0
-14 -6 -3 -10 -7 -10 -20 1 -16 13 -16 14 0 26 26 19 3 64 -37 72 -29 5 -52
23 -31 23 23 0 10 19 -20 29 -75 26 -161 6 -206 -48 -26 -30 -28 -38 -10 -44
6 -2 4 -3 -5 -2 -22 4 -23 -8 -3 -25 12 -10 13 -16 4 -26 -9 -11 -15 -11 -25
-3 -11 9 -14 8 -14 -5 0 -10 -4 -15 -9 -11 -24 14 31 121 80 156 61 43 145 48
215 12z m-8 -66 c21 -22 21 -23 2 -24 -11 -1 -22 3 -26 8 -4 6 -14 3 -25 -7
-14 -13 -23 -14 -30 -7 -14 14 -1 36 16 29 8 -3 19 2 25 10 15 18 13 18 38 -9z
m-2 -74 c42 7 82 -31 65 -60 -10 -17 -10 -17 -11 0 0 10 -4 15 -10 12 -5 -3
-10 1 -10 9 0 29 -20 27 -26 -3 -4 -17 -14 -33 -23 -35 -20 -6 -74 -1 -88 7
-6 4 -16 0 -23 -8 -7 -8 -21 -15 -31 -15 -15 0 -19 7 -19 34 0 39 -17 58 -22
24 -4 -27 -28 -37 -28 -11 0 11 18 38 41 61 l41 41 57 -30 c40 -22 65 -29 87
-26z m6024 -58 c0 -37 -4 -65 -10 -65 -6 0 -10 28 -10 65 0 37 4 65 10 65 6 0
10 -28 10 -65z m630 50 c-7 -9 -15 -13 -17 -11 -7 7 7 26 19 26 6 0 6 -6 -2
-15z m90 -30 c23 0 25 -4 25 -40 0 -39 -1 -40 -37 -42 l-38 -1 0 57 c0 61 12
89 20 49 4 -17 12 -23 30 -23z m-1158 -25 c18 -53 16 -82 -3 -47 -6 9 -19 17
-29 17 -10 0 -23 -8 -29 -17 -15 -27 -25 -7 -13 24 6 15 16 41 22 56 14 40 30
30 52 -33z m928 35 c0 -20 5 -25 25 -25 20 0 25 5 25 25 0 14 5 25 10 25 6 0
10 -27 10 -60 0 -33 -4 -60 -10 -60 -5 0 -10 11 -10 25 0 20 -5 25 -25 25 -20
0 -25 -5 -25 -25 0 -14 -4 -25 -10 -25 -6 0 -10 27 -10 60 0 33 4 60 10 60 6
0 10 -11 10 -25z m1600 15 c0 -6 -8 -10 -17 -8 -28 5 -26 -27 2 -40 27 -13 32
-31 13 -50 -15 -15 -55 -16 -64 -1 -3 6 1 10 12 9 50 -6 61 13 19 32 -24 11
-34 45 -18 61 10 11 53 8 53 -3z m964 4 c18 -7 22 -50 4 -56 -7 -3 -5 -13 7
-31 10 -15 13 -27 6 -27 -6 0 -18 11 -27 25 -18 27 -34 25 -34 -6 0 -10 -4
-19 -10 -19 -6 0 -10 27 -10 60 0 57 1 60 24 60 13 0 31 -3 40 -6z m-1566 -24
c15 -1 15 -2 0 -14 -10 -7 -18 -23 -18 -34 0 -12 8 -26 18 -32 15 -9 14 -10
-8 -8 -21 3 -26 9 -31 45 -3 25 -1 47 5 53 7 7 12 7 14 0 2 -5 11 -10 20 -10z
m820 3 c12 -12 13 -18 4 -21 -18 -6 -15 -49 6 -62 15 -9 14 -10 -8 -8 -18 2
-26 10 -28 28 -6 46 -10 52 -32 40 -13 -7 -20 -21 -20 -40 0 -17 -4 -30 -10
-30 -5 0 -10 20 -10 43 0 43 1 44 32 45 18 0 34 6 36 11 5 15 11 14 30 -6z
m979 1 c13 -12 13 -18 4 -24 -15 -9 -11 -52 6 -57 6 -2 14 5 18 16 3 12 15 21
25 21 10 0 22 5 25 10 4 6 -5 10 -20 10 -15 0 -24 4 -20 10 10 16 52 12 59 -6
3 -9 6 -29 6 -45 l0 -29 -62 2 -63 3 -6 40 c-6 37 -3 65 8 65 2 0 12 -7 20
-16z m511 -1 c12 -12 13 -18 4 -21 -18 -6 -15 -49 6 -62 15 -9 14 -10 -8 -8
-20 3 -26 10 -31 43 -6 37 -3 65 8 65 2 0 12 -8 21 -17z m-4148 -13 c0 -5 -9
-10 -21 -10 -16 0 -20 -5 -17 -27 2 -20 8 -28 21 -27 9 1 17 -3 17 -8 0 -5
-12 -8 -27 -6 -22 2 -29 9 -31 31 -2 16 2 35 9 43 13 16 49 19 49 4z m80 0 c0
-5 -9 -10 -19 -10 -11 0 -21 -6 -24 -12 -7 -20 13 -50 29 -44 8 3 14 1 14 -5
0 -6 -12 -9 -26 -7 -51 6 -50 88 1 88 14 0 25 -4 25 -10z m42 -35 c4 -42 22
-37 26 8 5 53 22 46 22 -9 0 -45 0 -45 -32 -42 -31 3 -33 5 -36 48 -4 50 14
46 20 -5z m136 33 c22 -22 13 -38 -19 -38 -27 0 -30 -2 -19 -15 7 -9 19 -14
27 -11 7 3 13 1 13 -4 0 -6 -11 -10 -25 -10 -17 0 -29 8 -36 24 -21 45 26 87
59 54z m52 -33 c0 -25 -4 -45 -10 -45 -5 0 -10 20 -10 45 0 25 5 45 10 45 6 0
10 -20 10 -45z m688 18 c3 -19 -1 -23 -22 -23 -14 0 -26 -4 -26 -9 0 -12 29
-23 41 -15 5 3 9 0 9 -6 0 -7 -13 -10 -32 -8 -28 2 -34 8 -36 31 -2 16 2 35 9
43 18 22 53 13 57 -13z m190 0 c3 -19 -1 -23 -22 -23 -14 0 -26 -4 -26 -9 0
-12 29 -23 41 -15 5 3 9 0 9 -6 0 -7 -13 -10 -32 -8 -28 2 -34 8 -36 31 -2 16
2 35 9 43 18 22 53 13 57 -13z m82 16 c0 -5 -6 -9 -14 -9 -15 0 -26 -21 -26
-51 0 -10 -4 -19 -10 -19 -5 0 -10 20 -10 43 0 42 1 44 30 45 17 0 30 -4 30
-9z m81 -11 c-4 -13 -18 -28 -30 -34 l-22 -12 26 -6 c20 -5 26 -12 23 -29 -2
-18 -9 -22 -38 -22 -31 0 -35 3 -32 25 1 14 2 38 3 54 0 41 5 46 44 46 31 0
34 -2 26 -22z m83 6 c11 -27 7 -34 -20 -34 -16 0 -24 -5 -21 -12 2 -7 14 -12
26 -11 11 2 21 -2 21 -8 0 -6 -14 -9 -31 -7 -36 3 -51 30 -38 66 10 26 54 31
63 6z m148 2 c11 -16 9 -76 -2 -76 -5 0 -10 16 -10 36 0 28 -3 35 -17 32 -12
-2 -19 -14 -21 -36 -4 -43 -22 -41 -22 3 0 24 -5 35 -15 35 -10 0 -15 -11 -15
-35 0 -19 -4 -35 -10 -35 -5 0 -10 20 -10 45 l0 44 58 -1 c31 -1 60 -6 64 -12z
m92 -2 c11 -27 7 -34 -20 -34 -16 0 -24 -5 -21 -12 2 -7 14 -12 26 -11 11 2
21 -2 21 -8 0 -6 -14 -9 -31 -7 -36 3 -51 30 -38 66 10 26 54 31 63 6z m104
-31 c2 -26 -1 -43 -7 -43 -6 0 -11 16 -11 36 0 28 -3 35 -17 32 -12 -2 -19
-14 -21 -36 -5 -48 -22 -39 -22 12 l0 44 38 -1 c36 -2 37 -3 40 -44z m142 37
c0 -5 -10 -10 -22 -10 l-23 0 24 -19 c30 -23 22 -51 -14 -51 -14 0 -25 4 -25
9 0 5 9 7 20 4 27 -7 26 11 -2 29 -28 19 -18 48 17 48 14 0 25 -4 25 -10z
m619 -12 c13 -36 -2 -63 -34 -63 -37 0 -53 25 -37 59 15 34 59 36 71 4z m171
-23 c0 -25 -4 -45 -10 -45 -5 0 -10 20 -10 45 0 25 5 45 10 45 6 0 10 -20 10
-45z m88 18 c3 -19 -1 -23 -22 -23 -14 0 -26 -4 -26 -9 0 -12 29 -23 41 -15 5
3 9 0 9 -5 0 -6 -13 -11 -29 -11 -29 0 -41 14 -41 49 0 43 62 55 68 14z m82
17 c0 -5 -10 -10 -22 -10 l-23 0 24 -19 c30 -23 22 -51 -14 -51 -14 0 -25 4
-25 9 0 5 9 7 20 4 27 -7 26 11 -2 29 -28 19 -18 48 17 48 14 0 25 -4 25 -10z
m628 -17 c3 -19 -1 -23 -22 -23 -14 0 -26 -4 -26 -9 0 -12 29 -23 41 -15 5 3
9 0 9 -6 0 -7 -13 -10 -32 -8 -28 2 -34 8 -36 31 -2 16 2 35 9 43 18 22 53 13
57 -13z m82 17 c0 -5 -10 -10 -22 -10 l-23 0 24 -19 c30 -23 22 -51 -14 -51
-14 0 -25 4 -25 9 0 5 9 7 20 4 27 -7 26 11 -2 29 -28 19 -18 48 17 48 14 0
25 -4 25 -10z m190 -23 c0 -38 6 -48 26 -40 8 3 14 19 14 39 0 19 5 34 10 34
6 0 10 -21 10 -46 l0 -45 -37 3 c-37 3 -38 4 -41 46 -2 25 1 42 7 42 6 0 11
-15 11 -33z m130 23 c0 -5 -7 -10 -15 -10 -10 0 -15 -11 -15 -35 0 -19 -4 -35
-10 -35 -5 0 -10 20 -10 45 0 41 2 45 25 45 14 0 25 -4 25 -10z m80 -9 c5 -11
10 -31 10 -44 0 -22 -4 -25 -37 -24 -31 2 -38 6 -38 22 0 13 8 21 23 23 27 4
29 22 2 22 -11 0 -20 5 -20 10 0 18 49 11 60 -9z m98 7 c14 -14 16 -78 3 -78
-6 0 -11 15 -13 32 -2 22 -9 34 -20 36 -15 3 -18 -4 -18 -32 0 -20 -4 -36 -10
-36 -5 0 -10 20 -10 45 0 43 1 45 28 45 15 0 33 -5 40 -12z m-9998 -176 c0 -5
-7 -9 -15 -9 -8 0 -12 4 -9 9 3 4 9 8 15 8 5 0 9 -4 9 -8z m65 -377 c6 -2 -34
-4 -87 -4 -54 -1 -98 3 -98 8 0 8 160 4 185 -4z m30 -32 c74 -28 148 -45 154
-35 9 16 114 19 119 4 2 -8 28 -12 73 -12 69 0 69 0 63 -25 -4 -17 -2 -25 7
-26 8 -1 19 -2 24 -4 6 -1 15 -3 22 -3 7 -1 1 -13 -12 -27 -14 -13 -25 -34
-25 -46 0 -34 -29 -59 -67 -59 -42 0 -42 -14 3 -58 35 -34 36 -40 23 -92 -3
-9 4 -16 19 -18 17 -3 22 -10 22 -31 0 -37 -9 -44 -34 -28 -20 13 -34 18 -122
37 -22 5 -71 23 -108 39 -36 17 -73 31 -81 31 -8 0 -15 5 -15 10 0 6 -7 10
-15 10 -8 0 -15 7 -15 15 0 9 -10 19 -22 24 -48 19 -258 45 -351 43 -35 0 -64
7 -105 29 -31 16 -61 29 -67 29 -5 0 -26 5 -46 10 -31 9 -38 16 -42 43 -6 46
0 56 35 50 17 -3 41 1 54 7 13 8 48 11 88 8 36 -2 66 0 66 4 0 4 32 8 70 8 68
0 70 1 70 25 0 45 17 54 105 51 44 -1 94 -7 110 -13z m350 -3 c4 -6 -12 -10
-40 -10 -28 0 -44 4 -40 10 3 6 21 10 40 10 19 0 37 -4 40 -10z m880 -386 c23
-15 25 -15 25 0 0 24 27 19 52 -9 18 -20 31 -25 72 -25 31 0 56 -6 67 -16 13
-12 26 -14 46 -8 15 4 55 7 88 5 33 -1 71 2 85 7 38 14 90 -14 60 -33 -5 -3
-10 -17 -10 -29 0 -13 -10 -36 -22 -52 -13 -16 -22 -31 -21 -34 2 -3 -18 -6
-45 -7 -26 -1 -69 -4 -97 -7 -27 -3 -60 -5 -72 -6 -13 0 -23 -6 -23 -13 0 -7
-9 -18 -20 -25 -17 -10 -26 -10 -50 3 -16 8 -46 15 -67 15 -21 1 -56 5 -78 10
-22 5 -53 12 -70 15 -16 4 -43 13 -60 20 -16 7 -43 17 -60 21 -43 10 -76 34
-73 53 2 10 -5 17 -19 19 -16 2 -23 -2 -23 -12 0 -9 -9 -16 -21 -16 -17 0 -20
5 -17 33 3 31 5 32 43 30 158 -10 166 -9 186 17 49 65 77 75 124 44z m-910
-110 c16 -10 54 -16 117 -18 51 -2 109 -8 128 -12 40 -11 116 -49 125 -64 3
-5 17 -10 30 -10 13 0 29 -6 35 -12 5 -7 19 -24 31 -38 14 -17 22 -21 25 -12
8 18 32 15 44 -7 24 -46 121 -79 133 -46 5 12 13 12 54 1 26 -8 75 -17 108
-20 33 -4 70 -13 82 -21 24 -16 73 -20 73 -6 0 4 28 12 61 17 72 10 98 35 65
59 -31 23 -12 29 80 26 78 -2 85 0 82 16 -4 21 31 43 68 43 13 0 24 4 24 8 0
15 66 32 123 32 31 0 67 5 81 11 19 9 36 9 68 0 24 -7 65 -13 91 -14 49 -2 53
-7 49 -59 -1 -10 7 -22 18 -28 16 -9 20 -21 20 -61 0 -41 -5 -54 -26 -74 -15
-14 -34 -25 -43 -25 -9 0 -22 -14 -28 -31 -8 -20 -18 -30 -30 -29 -29 3 -59
-1 -45 -7 15 -6 16 -35 1 -50 -7 -7 -1 -14 21 -21 17 -7 29 -16 26 -20 -12
-19 -216 -34 -248 -18 -12 5 -18 4 -18 -3 0 -6 8 -11 18 -11 25 0 42 -19 42
-47 0 -28 -31 -30 -115 -9 -69 19 -82 26 -64 37 9 6 -1 9 -28 9 -30 0 -41 -4
-37 -13 2 -7 -1 -20 -8 -30 -11 -15 -33 -18 -140 -20 -91 -1 -131 2 -139 11
-7 6 -23 12 -35 12 -11 0 -55 16 -97 35 -42 19 -81 35 -87 35 -6 0 -31 9 -54
20 -24 11 -63 22 -87 26 -24 4 -52 11 -62 16 -28 15 -135 -1 -155 -22 -9 -10
-36 -23 -59 -29 -24 -7 -43 -16 -43 -21 0 -15 -34 -17 -52 -2 -10 8 -25 12
-35 7 -17 -6 -17 -7 0 -19 19 -15 24 -42 5 -30 -7 5 -19 9 -28 10 -8 1 -28 6
-45 12 -16 5 -62 7 -101 6 -54 -3 -75 0 -84 11 -10 13 -8 15 12 15 39 0 124
29 139 47 13 15 10 16 -31 10 -25 -4 -60 -10 -78 -13 -32 -6 -34 -5 -30 22 l3
29 -225 0 c-124 0 -231 -4 -237 -9 -17 -11 26 -46 57 -46 45 0 235 -32 245
-41 5 -5 22 -9 37 -9 31 0 36 -14 12 -37 -11 -12 -12 -18 -4 -23 6 -4 10 -22
8 -41 -2 -26 -10 -37 -30 -46 -16 -7 -28 -16 -28 -20 0 -4 24 -19 53 -32 127
-58 233 -113 242 -125 6 -7 27 -16 47 -20 20 -4 50 -13 65 -21 l28 -15 -35 -1
c-58 -3 -83 0 -136 15 -28 8 -84 15 -125 17 -41 1 -79 7 -86 12 -7 5 -76 7
-155 5 -129 -3 -145 -1 -160 15 -11 13 -37 21 -77 24 -34 3 -61 10 -61 16 0 6
-8 3 -18 -6 -9 -9 -43 -24 -75 -34 -52 -16 -56 -18 -35 -27 20 -9 15 -11 -32
-14 -30 -2 -82 1 -115 7 -41 7 -85 6 -140 -1 -92 -12 -286 -12 -360 1 -37 6
-42 9 -19 10 29 1 86 41 83 58 -5 32 1 34 89 27 48 -4 92 -10 98 -15 12 -10
83 -1 100 13 7 5 22 5 36 -1 22 -8 205 -15 255 -9 28 3 40 28 14 28 -11 0 -21
6 -24 13 -2 8 -27 12 -73 13 -117 2 -124 3 -124 18 0 8 9 17 19 21 25 8 34 47
21 95 -12 46 -14 47 -65 53 -71 9 -115 19 -121 29 -3 5 -17 -1 -30 -13 -19
-18 -27 -20 -37 -10 -9 10 -7 16 13 31 14 10 23 20 20 22 -5 3 -18 8 -139 54
-35 13 -75 24 -87 24 -13 0 -24 4 -24 8 0 9 -93 36 -127 37 -12 0 -28 7 -35
16 -7 9 -28 22 -46 29 -17 7 -32 16 -32 21 0 4 -9 11 -21 14 -21 7 -21 32 0
27 18 -4 51 17 51 33 0 7 -7 20 -15 29 -8 8 -15 19 -15 25 0 16 79 23 175 14
50 -5 108 -5 130 -2 27 5 56 1 95 -13 39 -14 79 -20 139 -19 55 0 93 -5 112
-14 15 -8 45 -15 67 -15 21 0 42 -4 48 -9 13 -14 90 -30 102 -22 6 4 15 19 21
33 8 22 7 29 -7 37 -9 5 -14 12 -12 15 12 11 69 15 75 6 7 -11 407 -13 470 -3
19 3 35 13 40 26 6 12 21 24 35 28 14 4 21 7 17 8 -12 1 19 31 32 31 17 0 13
27 -4 34 -8 3 -15 13 -15 22 0 14 7 15 41 10 22 -4 51 -13 64 -22z m1595 -4
c0 -5 -4 -10 -10 -10 -5 0 -10 5 -10 10 0 6 5 10 10 10 6 0 10 -4 10 -10z
m2698 -23 c-3 -51 -47 -64 -74 -22 -19 30 -20 28 26 42 42 12 49 9 48 -20z
m-585 -154 c-7 -2 -19 -2 -25 0 -7 3 -2 5 12 5 14 0 19 -2 13 -5z m-1846 -199
c18 -14 47 -30 63 -36 17 -5 30 -13 30 -18 0 -14 -193 -18 -213 -4 -18 12 -18
12 2 19 12 3 21 14 21 24 0 45 47 53 97 15z m-3117 -84 c11 -7 12 -12 3 -21
-13 -13 -57 6 -48 22 8 12 26 11 45 -1z m3442 -4 c18 -9 65 -14 148 -15 67 0
127 -4 133 -8 6 -4 27 -9 47 -13 30 -4 35 -10 38 -35 2 -17 8 -33 13 -36 5 -3
10 -30 12 -59 l2 -54 -55 -14 c-61 -15 -57 -15 -153 -6 -41 4 -73 2 -79 -4 -6
-6 -21 -6 -41 0 -23 7 -43 5 -71 -4 -36 -13 -37 -15 -22 -31 9 -9 39 -19 66
-23 28 -4 56 -14 65 -24 9 -10 37 -24 61 -31 33 -10 43 -17 38 -29 -13 -32 -9
-43 20 -47 16 -2 37 -8 47 -14 24 -12 29 -11 29 5 0 8 7 17 16 20 26 10 132 7
139 -4 3 -5 41 -10 84 -10 71 0 79 2 84 21 5 18 11 20 44 15 21 -3 59 -8 86
-12 49 -7 61 -18 27 -27 -11 -3 -20 -9 -20 -14 0 -11 70 -11 87 0 18 12 84 12
91 0 4 -6 14 -9 22 -8 8 1 42 -2 75 -7 128 -19 323 -6 341 23 9 15 98 10 121
-6 12 -8 46 -38 75 -65 29 -28 64 -53 78 -57 14 -3 33 -12 42 -21 22 -19 54
-10 98 27 24 21 38 27 45 20 7 -7 4 -14 -7 -23 -25 -19 -23 -23 19 -37 20 -6
46 -20 57 -31 15 -14 28 -17 46 -12 14 4 64 8 112 9 101 1 122 14 124 75 2 59
16 110 29 110 7 0 20 3 28 6 8 3 17 -2 21 -11 9 -24 -4 -65 -20 -65 -8 0 -14
-7 -14 -15 0 -8 6 -15 14 -15 7 0 19 -7 26 -15 10 -12 24 -14 64 -9 28 4 53
11 56 15 3 4 15 7 25 7 29 -3 115 23 115 34 0 5 5 6 10 3 6 -3 10 1 10 9 0 9
9 16 20 16 11 0 20 -5 20 -10 0 -6 11 -15 25 -20 14 -5 24 -15 23 -22 -4 -18
104 -13 158 7 30 12 48 13 68 6 28 -11 35 -31 11 -31 -22 0 -18 -28 6 -41 12
-6 30 -9 40 -6 10 3 19 1 19 -4 0 -10 37 -3 80 14 37 15 56 18 150 24 60 4 93
11 111 24 21 15 58 21 175 30 82 6 182 7 222 4 57 -5 72 -4 72 7 0 13 43 36
84 44 11 3 31 -8 48 -25 30 -29 31 -51 2 -51 -9 0 -14 -11 -14 -30 0 -27 3
-29 36 -28 22 1 38 8 44 18 13 24 45 30 69 13 45 -31 15 -69 -62 -78 -60 -8
-92 -27 -84 -50 7 -16 43 -21 49 -7 2 5 27 12 56 15 l52 6 2 -87 c1 -48 0
-104 -1 -125 -2 -32 1 -39 18 -44 12 -3 21 -8 21 -12 0 -3 23 -4 51 -2 36 2
49 0 45 -8 -8 -13 -59 -14 -169 -5 -76 7 -97 17 -57 27 14 4 20 14 20 32 0 23
-3 26 -20 21 -11 -3 -29 -9 -40 -12 -23 -7 -28 14 -7 35 10 11 9 13 -3 9 -29
-9 -24 -88 5 -88 8 0 15 -5 15 -11 0 -13 -56 -70 -67 -68 -4 1 -20 1 -35 0
-25 -1 -27 -4 -21 -31 l6 -30 -49 0 c-42 -1 -46 -2 -29 -12 11 -7 38 -13 60
-14 47 -3 104 -13 125 -22 8 -3 54 -7 102 -7 80 -2 118 -13 118 -34 0 -4 -22
-15 -49 -25 -27 -9 -57 -26 -67 -37 -11 -12 -30 -19 -55 -19 -21 0 -44 -7 -53
-15 -18 -18 -37 -20 -30 -2 3 10 -10 11 -63 4 -91 -11 -289 -26 -335 -26 -28
0 -38 -4 -38 -16 0 -8 8 -15 17 -15 12 0 14 -3 7 -10 -14 -14 -44 -2 -44 16 0
8 -7 14 -15 14 -8 0 -15 -7 -15 -15 0 -21 -20 -19 -20 3 -1 15 -2 15 -13 1
-20 -25 -48 -31 -73 -14 -13 8 -25 11 -28 7 -3 -5 -49 -10 -102 -11 -54 -1
-105 -6 -114 -11 -10 -5 -20 -7 -23 -4 -3 3 -8 1 -12 -5 -4 -7 4 -11 20 -11
24 0 76 -23 116 -52 10 -7 24 -8 35 -3 11 4 22 7 27 7 4 -1 7 3 7 8 0 6 11 10
25 10 14 0 25 -4 25 -9 0 -5 11 -11 25 -13 14 -3 25 -1 25 5 0 6 4 6 13 0 6
-6 30 -13 51 -16 40 -6 63 -26 44 -38 -6 -4 3 -10 20 -13 18 -5 32 -15 35 -27
4 -14 13 -19 29 -18 42 4 81 -1 74 -8 -8 -8 -13 -9 -40 -12 -14 -1 -14 -41 0
-63 7 -12 104 -10 104 2 0 6 -6 10 -12 11 -7 0 -4 4 7 8 33 13 70 -6 85 -44
16 -41 23 -44 113 -46 37 -1 70 -6 73 -10 3 -5 16 -6 29 -3 18 4 27 0 40 -20
14 -22 25 -26 62 -26 27 0 42 -4 38 -10 -4 -6 11 -10 37 -10 33 0 47 -6 64
-25 17 -20 28 -24 48 -19 14 3 23 10 20 15 -3 5 3 9 14 9 10 0 19 -6 20 -12 0
-7 4 -23 7 -35 7 -21 4 -23 -30 -23 -30 0 -36 3 -31 16 5 13 -1 15 -47 9 -28
-3 -64 -7 -79 -8 -25 -1 -42 -27 -18 -27 6 0 10 -7 10 -15 0 -19 -58 -29 -93
-16 -16 6 -70 11 -121 11 -52 0 -133 7 -182 16 -49 9 -111 14 -139 11 -27 -2
-61 -1 -75 3 -16 4 -31 2 -41 -7 -21 -18 -118 -24 -127 -7 -4 6 -25 13 -47 14
-57 4 -77 1 -71 -9 3 -4 18 -6 33 -4 27 5 27 5 8 -11 -20 -15 -20 -15 3 -16
12 0 22 -4 22 -8 0 -4 27 -14 60 -21 33 -8 60 -16 60 -19 0 -2 -10 -13 -22
-24 -26 -22 -88 -21 -218 6 -41 8 -109 20 -150 27 -41 6 -97 17 -125 24 -59
16 -225 27 -225 16 0 -4 19 -14 43 -21 82 -27 72 -50 -22 -50 -71 0 -137 22
-125 42 5 8 -5 8 -32 2 -21 -5 -84 -8 -139 -6 -259 6 -646 4 -704 -5 -49 -8
-72 -7 -104 4 -27 10 -58 12 -87 8 -25 -4 -66 -7 -92 -7 -27 -1 -48 -5 -48
-10 0 -16 65 -48 113 -54 26 -4 47 -11 47 -16 0 -6 26 -7 65 -3 35 4 77 4 92
-1 27 -8 27 -8 -12 -14 l-40 -7 45 -2 c25 -2 59 -4 75 -5 17 -1 55 -3 85 -4
40 -2 51 -5 40 -12 -8 -5 -27 -10 -42 -10 -24 0 -26 -3 -25 -45 3 -67 -20 -60
-25 8 -3 53 -18 45 -20 -10 l-2 -48 -3 47 c-5 53 -6 53 -98 62 -161 15 -450
49 -530 61 -49 8 -156 21 -237 30 -94 10 -191 28 -265 49 -65 18 -190 50 -278
71 -88 20 -203 48 -255 62 -52 13 -111 26 -130 29 -19 3 -82 16 -140 29 -129
30 -227 48 -387 71 -117 16 -123 18 -123 41 0 28 -35 32 -42 5 -5 -18 -15 -17
-199 15 -107 18 -216 37 -244 43 -99 19 -552 83 -675 95 -36 4 -135 15 -220
25 -85 10 -189 22 -231 25 -42 4 -82 11 -90 17 -10 7 -3 8 21 4 33 -5 74 -9
240 -21 36 -3 76 -7 90 -10 47 -8 245 -24 280 -23 25 1 19 3 -20 8 -53 6 -53
7 -15 10 l40 3 -45 8 -45 7 55 0 c80 -1 84 0 107 21 15 15 33 19 80 17 34 0
59 -4 56 -8 -5 -10 76 -9 137 1 44 7 43 7 -35 15 -112 11 -278 35 -284 43 -4
3 26 2 64 -2 39 -4 67 -4 64 -1 -5 6 -291 52 -388 63 -31 4 -40 8 -30 15 10 6
7 7 -9 3 -13 -4 -29 -2 -35 4 -7 5 -68 19 -135 31 -67 12 -148 28 -180 36 -31
8 -97 22 -147 30 -49 8 -121 20 -160 28 -77 15 -300 52 -410 68 -104 15 -176
27 -215 38 -39 9 -77 17 -288 56 -78 15 -140 29 -137 32 8 9 196 2 214 -8 10
-5 67 -14 127 -20 60 -7 110 -16 112 -21 2 -5 52 -9 111 -9 63 0 131 -6 164
-15 32 -8 68 -15 79 -15 12 0 31 -8 42 -19 12 -10 50 -23 86 -30 123 -21 222
-33 228 -26 4 3 -4 14 -17 24 -18 13 -22 24 -18 41 7 26 -8 44 -43 52 -14 3
-51 13 -83 22 -32 9 -70 16 -85 17 -15 0 -36 4 -47 9 -16 7 -12 9 23 15 27 5
40 11 34 17 -13 13 -170 20 -177 8 -10 -16 -82 -12 -99 5 -8 8 -30 15 -50 15
-19 0 -38 5 -41 10 -8 12 -65 13 -65 1 0 -18 32 -34 72 -35 23 -1 43 -6 45
-13 4 -10 -10 -11 -59 -7 -35 4 -71 11 -82 16 -10 6 -43 11 -74 12 -33 0 -57
6 -59 13 -3 7 -20 15 -39 19 -39 7 -53 22 -33 35 25 16 -11 30 -63 25 -26 -2
-62 -1 -80 4 -18 5 -55 11 -83 15 -57 7 -72 15 -29 15 16 0 39 7 51 15 16 11
32 12 79 5 33 -6 75 -10 95 -10 23 0 42 -7 54 -20 16 -17 31 -20 112 -20 52 0
93 4 93 9 0 6 16 3 35 -5 19 -7 47 -14 63 -14 34 0 97 -24 107 -41 5 -7 24 -8
54 -4 27 4 59 1 76 -5 24 -9 31 -8 41 4 16 23 34 20 35 -6 0 -13 3 -17 6 -10
3 8 0 25 -8 38 -7 13 -9 27 -6 31 9 9 -33 53 -50 53 -7 0 -13 5 -13 11 0 6 7
8 17 5 16 -6 36 -9 134 -20 42 -4 88 -33 89 -56 1 -21 41 -48 92 -60 96 -25
128 -28 238 -30 196 -3 190 -4 190 25 0 14 -10 35 -21 46 -17 17 -19 23 -8 30
15 9 81 14 137 10 17 -1 32 2 32 7 0 9 7 11 60 16 19 1 55 6 80 11 36 6 41 9
25 16 l-20 8 20 1 c18 1 17 3 -5 13 -24 11 -23 11 17 15 24 2 83 -4 133 -12
138 -24 198 -19 138 13 -19 9 -12 11 45 8 38 -2 71 -8 75 -14 4 -6 17 -13 30
-17 12 -4 22 -12 22 -17 0 -6 5 -7 10 -4 6 3 8 16 4 29 -5 22 -4 22 93 19 54
-2 125 -8 159 -13 74 -12 154 -13 154 -2 0 4 -6 14 -12 21 -11 11 -3 12 42 7
74 -8 173 -7 226 3 31 6 44 5 44 -3 0 -8 2 -8 8 1 4 6 20 13 36 15 53 6 40 25
-19 30 -30 3 -58 7 -61 11 -9 9 22 37 40 37 28 0 130 -30 136 -40 3 -5 62 -9
143 -8 133 2 136 2 117 20 -34 32 -92 47 -159 41 -60 -6 -73 1 -50 24 9 9 -2
18 -44 37 -31 15 -64 26 -74 26 -26 0 -51 21 -55 45 -2 12 -15 23 -36 29 -17
5 -32 12 -32 17 0 4 -22 10 -50 14 -27 4 -50 11 -50 15 0 5 -17 12 -37 16 -21
4 -45 12 -53 19 -8 7 -28 17 -44 22 -38 12 -43 27 -17 50 12 9 21 23 21 30 0
7 11 15 24 19 29 7 42 33 24 47 -8 5 17 5 62 0 41 -4 134 -8 206 -8 112 0 135
3 152 18 15 14 31 17 83 13 35 -3 111 -8 169 -11 95 -5 103 -4 86 10 -11 8
-26 15 -33 15 -7 0 -13 5 -13 11 0 8 18 10 62 5 59 -6 60 -5 45 12 -19 21 -6
42 26 42 13 0 17 5 13 15 -7 20 39 20 76 1z m2036 -18 c-7 -19 -38 -22 -38 -4
0 10 9 16 21 16 12 0 19 -5 17 -12z m-5278 -68 c0 -5 -4 -10 -10 -10 -5 0 -10
5 -10 10 0 6 5 10 10 10 6 0 10 -4 10 -10z m5612 -10 l23 -18 -27 -11 c-16 -6
-28 -18 -28 -27 0 -27 -24 -9 -32 24 -10 36 -23 40 -50 15 -17 -15 -18 -15
-18 8 0 23 4 25 55 26 40 1 61 -4 77 -17z m103 -52 c6 -4 2 -8 -7 -8 -10 0
-18 7 -18 17 0 9 3 12 8 7 4 -5 12 -12 17 -16z m-3850 -8 c-3 -5 -14 -10 -23
-10 -15 0 -15 2 -2 10 20 13 33 13 25 0z m4018 1 c4 0 7 -8 7 -17 0 -18 17
-37 42 -47 16 -6 16 -9 3 -34 -8 -15 -17 -41 -20 -57 l-6 -29 -25 26 c-13 14
-24 31 -24 37 0 5 -6 10 -14 10 -8 0 -16 10 -20 23 -3 14 -22 31 -46 44 -31
15 -37 22 -25 27 9 3 21 4 26 0 5 -3 9 -1 9 5 0 6 6 8 14 5 8 -3 17 -1 20 4 5
8 25 9 59 3z m-4169 -249 c2 -4 -9 -9 -25 -10 -16 -1 -29 2 -29 8 0 12 47 14
54 2z m69 -7 c4 -8 2 -17 -2 -20 -5 -2 -11 4 -14 15 -6 23 8 27 16 5z m4337
-18 c0 -10 -15 -13 -57 -11 -84 4 -86 7 -13 14 36 4 66 7 68 8 1 1 2 -4 2 -11z
m-4124 -110 c4 -4 18 -7 30 -7 29 0 53 -37 30 -46 -25 -9 -231 14 -268 31 -21
8 -23 22 -5 28 21 7 205 2 213 -6z m3307 -44 c-13 -2 -33 -2 -45 0 -13 2 -3 4
22 4 25 0 35 -2 23 -4z m-5918 -78 c40 -14 40 -14 9 -15 -18 0 -47 7 -65 15
-31 13 -32 14 -9 14 14 1 43 -6 65 -14z m8058 -202 c-7 -2 -19 -2 -25 0 -7 3
-2 5 12 5 14 0 19 -2 13 -5z m-7536 -149 c-3 -3 -12 -4 -19 -1 -8 3 -5 6 6 6
11 1 17 -2 13 -5z m1400 -320 c-3 -3 -12 -4 -19 -1 -8 3 -5 6 6 6 11 1 17 -2
13 -5z m-260 -40 c-3 -3 -12 -4 -19 -1 -8 3 -5 6 6 6 11 1 17 -2 13 -5z m8673
-294 c0 -5 8 -10 18 -11 9 0 1 -6 -18 -13 -42 -16 -60 -11 -60 15 0 14 7 19
30 19 17 0 30 -4 30 -10z m385 -25 c1 -17 -5 -20 -44 -21 -32 -1 -40 1 -26 7
17 6 17 8 3 8 -21 1 -24 17 -5 25 6 3 25 4 41 3 22 -1 30 -7 31 -22z m-202 -2
c-7 -2 -19 -2 -25 0 -7 3 -2 5 12 5 14 0 19 -2 13 -5z m-267 -35 c3 -10 10
-18 15 -18 14 0 39 -26 39 -39 0 -14 -34 -14 -97 -2 -26 6 -88 13 -138 17 -73
5 -86 9 -67 17 12 5 22 16 22 23 0 14 40 19 153 19 55 0 68 -3 73 -17z m334
12 c0 -5 -7 -10 -15 -10 -8 0 -15 5 -15 10 0 6 7 10 15 10 8 0 15 -4 15 -10z
m40 -10 c0 -5 -2 -10 -4 -10 -3 0 -8 5 -11 10 -3 6 -1 10 4 10 6 0 11 -4 11
-10z m-160 -30 c0 -5 12 -7 28 -4 16 3 35 -1 47 -10 l20 -15 -20 -2 c-52 -2
-69 -7 -73 -17 -5 -17 -22 -15 -22 3 0 9 -7 18 -15 21 -11 5 -12 9 -2 20 14
15 37 18 37 4z m-107 -57 c-7 -2 -19 -2 -25 0 -7 3 -2 5 12 5 14 0 19 -2 13
-5z m-2254 -49 c2 -2 -15 -4 -38 -4 -23 0 -40 4 -37 9 6 8 66 4 75 -5z m-1403
-171 c20 -7 17 -23 -3 -23 -21 0 -166 19 -238 30 -32 6 1 7 89 3 76 -2 145 -7
152 -10z m-6086 3 c0 -3 -4 -8 -10 -11 -5 -3 -10 -1 -10 4 0 6 5 11 10 11 6 0
10 -2 10 -4z m2305 -6 c-3 -5 -11 -10 -16 -10 -6 0 -7 5 -4 10 3 6 11 10 16
10 6 0 7 -4 4 -10z m-2576 -37 c8 -21 16 -44 18 -50 3 -7 0 -13 -6 -13 -6 0
-11 7 -11 15 0 9 -9 15 -25 15 -16 0 -25 -6 -25 -15 0 -8 -5 -15 -11 -15 -6 0
-9 6 -6 13 2 6 10 29 18 50 7 20 18 37 24 37 6 0 17 -17 24 -37z m2513 12 c10
-22 12 -23 23 -9 6 9 20 14 31 12 14 -2 19 -12 19 -38 0 -26 -5 -36 -19 -38
-11 -2 -25 4 -32 13 -12 16 -14 16 -29 1 -9 -9 -30 -16 -46 -16 -28 0 -29 1
-29 50 l0 50 35 0 c28 0 38 -5 47 -25z m323 -33 c0 -27 -4 -42 -12 -42 -8 0
-13 14 -13 35 0 26 -3 33 -15 29 -9 -4 -15 -19 -15 -35 0 -16 -4 -29 -10 -29
-5 0 -10 18 -10 39 0 36 3 40 28 44 43 6 47 3 47 -41z m2197 -5 c10 -26 14
-47 9 -47 -5 0 -11 7 -15 15 -7 20 -42 19 -50 -1 -4 -9 -9 -14 -12 -11 -10 10
28 98 40 94 6 -2 19 -25 28 -50z m94 -2 c3 -44 2 -45 -26 -45 -36 0 -56 30
-40 60 6 11 20 20 30 20 11 0 20 5 20 12 0 6 3 8 7 4 4 -3 8 -27 9 -51z m301
31 c-9 -18 -15 -22 -25 -14 -7 6 -16 7 -20 3 -4 -4 -2 -10 4 -12 26 -9 47 -31
40 -41 -8 -14 -56 -16 -56 -3 0 5 9 7 20 4 25 -7 26 14 1 22 -10 3 -21 17 -23
30 -5 21 -1 24 31 28 20 2 37 4 38 5 0 1 -4 -9 -10 -22z m453 14 c0 -5 -12
-11 -27 -11 l-28 -2 28 -4 c34 -5 35 -20 2 -33 -33 -13 -32 -28 3 -33 22 -3
20 -4 -10 -6 l-38 -1 0 50 0 50 35 0 c19 0 35 -4 35 -10z m120 0 c-13 -8 -13
-10 0 -10 11 0 11 -3 2 -12 -7 -7 -12 -24 -12 -39 0 -22 -5 -26 -25 -26 -21 0
-25 4 -25 28 0 19 -5 29 -15 29 -8 0 -15 -7 -15 -15 0 -8 5 -15 11 -15 6 0 4
-7 -5 -15 -22 -23 -26 -19 -26 26 0 40 0 41 35 38 19 -2 40 2 47 9 6 6 19 12
28 12 13 0 13 -1 0 -10z m191 -2 c5 -60 3 -88 -8 -88 -8 0 -13 13 -13 29 0 17
-4 33 -10 36 -6 4 -10 -8 -10 -28 0 -19 -6 -37 -13 -40 -9 -3 -12 5 -9 29 5
43 -16 46 -24 4 -6 -28 -10 -30 -50 -30 l-44 0 3 38 c2 30 7 38 26 40 13 2 28
-2 32 -10 7 -10 9 -10 9 0 0 8 16 12 45 12 25 0 45 5 45 10 0 15 20 12 21 -2z
m477 5 c-14 -3 -18 -15 -18 -49 0 -24 -4 -44 -10 -44 -5 0 -10 20 -10 44 0 38
-3 45 -22 49 -13 2 0 4 27 4 28 1 42 -1 33 -4z m343 -25 c0 -30 1 -31 9 -10
19 46 76 13 63 -36 -7 -27 -47 -30 -62 -4 -10 16 -10 16 -11 0 0 -14 -8 -18
-35 -18 -29 0 -36 4 -41 25 -7 29 10 55 37 55 11 0 19 5 19 10 0 6 5 10 10 10
6 0 10 -15 11 -32z m139 -18 c0 -27 -4 -50 -10 -50 -5 0 -10 23 -10 50 0 28 5
50 10 50 6 0 10 -22 10 -50z m552 12 c-15 -5 -16 -34 0 -50 9 -9 8 -12 -5 -12
-10 0 -20 13 -26 33 l-9 32 -1 -32 c-1 -41 -21 -44 -21 -3 0 20 -5 30 -15 30
-10 0 -15 -10 -15 -30 0 -31 -19 -43 -21 -12 -1 16 -2 16 -6 0 -3 -11 -14 -18
-28 -18 -13 0 -29 8 -34 18 -10 16 -10 16 -11 0 0 -10 -4 -18 -10 -18 -5 0
-10 14 -10 30 0 20 -5 30 -15 30 -10 0 -15 -10 -15 -30 0 -16 -4 -30 -10 -30
-5 0 -10 14 -10 30 0 17 -4 30 -10 30 -5 0 -10 -13 -10 -30 0 -16 -4 -30 -10
-30 -5 0 -10 18 -10 39 l0 40 51 -1 c35 0 52 -4 56 -15 5 -13 7 -13 15 1 11
19 39 21 56 4 9 -9 12 -9 12 1 0 8 12 12 35 10 19 -2 40 2 46 8 9 9 16 8 28
-4 12 -12 13 -17 3 -21z m-7562 -12 c0 -22 -4 -40 -10 -40 -5 0 -10 16 -10 36
0 31 -2 35 -15 24 -8 -7 -15 -23 -15 -36 0 -13 -4 -24 -10 -24 -5 0 -10 14
-10 30 0 17 -4 30 -10 30 -5 0 -10 -11 -10 -24 0 -14 -4 -28 -10 -31 -6 -4
-10 9 -10 32 l0 39 55 2 55 1 0 -39z m31 13 c8 -19 13 -23 16 -13 3 8 7 21 9
29 2 8 7 11 10 8 8 -8 -15 -77 -26 -77 -8 0 -30 53 -30 71 0 18 11 8 21 -18z
m108 13 c20 -23 3 -66 -25 -66 -28 0 -39 19 -30 55 7 28 36 34 55 11z m79 -3
c15 -28 -4 -65 -30 -61 -23 3 -35 35 -24 64 8 20 43 18 54 -3z m2313 -7 c10
-21 15 -23 35 -14 13 6 24 15 24 20 0 12 -14 10 -29 -4 -11 -11 -13 -10 -9 2
3 8 16 15 29 15 21 0 24 -5 27 -37 3 -36 2 -38 -27 -38 -16 0 -33 5 -37 11 -4
8 -9 8 -17 0 -6 -6 -19 -11 -29 -11 -10 0 -18 -7 -18 -16 0 -8 -4 -13 -9 -10
-6 4 -8 90 -2 104 0 1 12 2 26 2 17 0 29 -8 36 -24z m2483 -29 c9 -37 29 -29
37 14 6 33 6 33 8 -9 1 -42 0 -43 -26 -40 -25 3 -28 7 -30 43 -2 42 1 39 11
-8z m196 28 c15 -18 5 -35 -21 -35 -10 0 -19 -5 -19 -11 0 -6 9 -9 20 -6 11 3
20 1 20 -5 0 -5 -12 -8 -27 -6 -20 2 -29 9 -31 26 -6 42 33 68 58 37z m148 8
c-10 -2 -26 -2 -35 0 -10 3 -2 5 17 5 19 0 27 -2 18 -5z m769 -34 c2 -26 -1
-39 -13 -43 -17 -7 -54 10 -54 24 0 13 17 13 25 0 8 -12 25 -13 25 -1 0 5 -9
11 -20 14 -12 3 -20 14 -20 27 0 17 5 21 27 18 24 -3 28 -8 30 -39z m421 14
l10 -28 7 28 c6 24 25 39 25 19 0 -27 -34 -102 -46 -102 -16 0 -19 17 -4 22 7
2 6 18 -4 46 -8 23 -11 42 -6 42 4 0 13 -12 18 -27z m117 -13 c0 -29 -4 -36
-22 -38 -13 -2 -23 -10 -23 -18 0 -8 -4 -14 -10 -14 -5 0 -10 25 -10 56 l0 55
33 -3 c29 -3 32 -6 32 -38z m75 25 c7 -9 10 -25 6 -41 -5 -20 -12 -25 -34 -22
-28 3 -40 32 -28 64 7 18 40 18 56 -1z m349 -2 c9 -17 10 -17 16 0 5 11 18 17
37 17 29 0 29 0 26 -52 -3 -47 -6 -53 -27 -56 -13 -2 -28 2 -35 9 -8 9 -6 10
11 6 13 -3 26 -1 29 4 3 5 -4 9 -15 9 -11 0 -24 7 -29 16 -8 15 -10 15 -15 0
-9 -23 -54 -21 -62 4 -16 50 39 86 64 43z m156 -23 c0 -31 -3 -35 -28 -38 -31
-4 -43 14 -33 54 5 20 12 25 34 22 24 -3 27 -7 27 -38z m-1707 13 c-10 -2 -26
-2 -35 0 -10 3 -2 5 17 5 19 0 27 -2 18 -5z m579 -79 c-3 -3 -12 -4 -19 -1 -8
3 -5 6 6 6 11 1 17 -2 13 -5z m213 -34 c0 -5 -5 -10 -11 -10 -5 0 -7 5 -4 10
3 6 8 10 11 10 2 0 4 -4 4 -10z m163 -37 c-7 -2 -19 -2 -25 0 -7 3 -2 5 12 5
14 0 19 -2 13 -5z m82 -13 l20 -9 -20 1 c-11 0 -31 4 -45 8 l-25 8 25 0 c14 0
34 -3 45 -8z m133 -17 c-21 -2 -55 -2 -75 0 -21 2 -4 4 37 4 41 0 58 -2 38 -4z
m117 -3 c-3 -5 -21 -9 -38 -9 l-32 2 35 7 c19 4 36 8 38 9 2 0 0 -3 -3 -9z
m134 -11 c-17 -11 -92 -12 -85 -1 2 4 25 8 51 8 30 1 42 -2 34 -7z m-4955 -65
c14 -13 16 -51 16 -264 0 -213 -2 -251 -16 -264 -14 -14 -128 -16 -1109 -16
-981 0 -1095 2 -1109 16 -24 23 -24 505 0 528 14 14 128 16 1109 16 981 0
1095 -2 1109 -16z m2490 0 c24 -23 24 -505 0 -528 -14 -14 -128 -16 -1109 -16
-981 0 -1095 2 -1109 16 -14 13 -16 51 -16 264 0 213 2 251 16 264 14 14 128
16 1109 16 981 0 1095 -2 1109 -16z m840 -10 c24 -23 24 -495 0 -518 -23 -24
-545 -24 -568 0 -14 13 -16 51 -16 259 0 208 2 246 16 259 13 14 53 16 284 16
231 0 271 -2 284 -16z m850 0 c24 -23 24 -495 0 -518 -13 -14 -54 -16 -289
-16 -261 0 -275 1 -285 19 -6 12 -10 113 -10 260 0 204 2 242 16 255 13 14 53
16 284 16 231 0 271 -2 284 -16z m2494 4 c9 -9 12 -80 12 -259 0 -212 -2 -250
-16 -263 -14 -14 -128 -16 -1105 -16 -733 0 -1097 3 -1110 10 -18 10 -19 24
-19 260 0 213 2 251 16 264 14 14 129 16 1113 16 840 0 1100 -3 1109 -12z
m1212 -226 c-1 -16 -1 -16 -11 1 -21 37 -66 6 -55 -38 12 -49 75 -15 77 43 1
17 3 20 6 10 2 -10 12 -18 22 -18 9 0 22 -5 29 -12 9 -9 12 -9 12 0 0 18 152
11 158 -8 4 -13 3 -13 -11 -2 -20 17 -37 8 -37 -19 0 -21 20 -25 38 -7 8 8 12
8 12 1 0 -17 -26 -34 -44 -27 -10 4 -16 18 -16 36 0 17 -4 27 -10 23 -5 -3
-10 -18 -10 -31 0 -16 -5 -24 -12 -21 -7 2 -21 0 -30 -4 -11 -6 -22 -4 -32 7
-12 12 -16 12 -17 2 -1 -7 -4 1 -8 17 -3 17 -13 30 -21 30 -8 0 -18 -13 -21
-30 -4 -16 -7 -22 -8 -12 -1 15 -3 15 -21 -3 -39 -39 -82 3 -66 65 10 39 76
37 76 -3z m283 -4 c12 0 35 0 51 1 16 2 33 -3 37 -11 7 -10 9 -10 9 0 0 6 9
12 21 12 19 0 19 -1 5 -16 -9 -8 -16 -25 -17 -37 0 -12 -3 -16 -6 -10 -3 10
-8 9 -19 -2 -10 -10 -21 -12 -32 -6 -9 4 -23 6 -29 4 -9 -3 -13 6 -13 27 0 40
-22 36 -31 -6 -5 -21 -7 -13 -7 26 0 30 2 47 5 38 2 -10 14 -19 26 -20z"/>
<path d="M1614 6455 c-8 -21 2 -45 20 -45 17 0 28 24 20 45 -4 8 -13 15 -20
15 -8 0 -17 -7 -20 -15z"/>
<path d="M8347 6483 c-4 -3 -7 -22 -7 -40 0 -47 24 -38 28 10 3 34 -5 46 -21
30z"/>
<path d="M8392 6453 c4 -48 28 -57 28 -10 0 22 -6 37 -16 41 -12 5 -15 -1 -12
-31z"/>
<path d="M8443 6483 c-15 -6 -17 -73 -3 -73 14 0 22 23 18 53 -2 14 -8 22 -15
20z"/>
<path d="M580 6475 c0 -8 9 -15 20 -15 11 0 20 7 20 15 0 8 -9 15 -20 15 -11
0 -20 -7 -20 -15z"/>
<path d="M580 6430 c0 -23 35 -28 43 -6 7 18 -1 26 -25 26 -11 0 -18 -7 -18
-20z"/>
<path d="M1456 6465 c-3 -9 0 -15 9 -15 9 0 12 6 9 15 -4 8 -7 15 -9 15 -2 0
-5 -7 -9 -15z"/>
<path d="M2010 6440 c0 -23 4 -30 20 -30 16 0 20 7 20 30 0 23 -4 30 -20 30
-16 0 -20 -7 -20 -30z"/>
<path d="M7343 6460 c14 -11 28 -20 32 -20 4 0 18 9 32 20 l26 20 -58 0 -58 0
26 -20z"/>
<path d="M7322 6433 c5 -25 95 -32 104 -8 10 24 -2 28 -28 11 -21 -14 -27 -14
-44 -1 -26 19 -36 19 -32 -2z"/>
<path d="M700 6460 c0 -5 7 -10 15 -10 8 0 15 5 15 10 0 6 -7 10 -15 10 -8 0
-15 -4 -15 -10z"/>
<path d="M920 6460 c0 -5 9 -10 21 -10 11 0 17 5 14 10 -3 6 -13 10 -21 10 -8
0 -14 -4 -14 -10z"/>
<path d="M1165 6460 c-3 -5 3 -10 15 -10 12 0 18 5 15 10 -3 6 -10 10 -15 10
-5 0 -12 -4 -15 -10z"/>
<path d="M1280 6430 c-8 -5 -11 -12 -8 -16 10 -9 38 3 38 16 0 12 -10 13 -30
0z"/>
<path d="M1695 6460 c-3 -5 3 -10 14 -10 12 0 21 5 21 10 0 6 -6 10 -14 10 -8
0 -18 -4 -21 -10z"/>
<path d="M1825 6459 c-10 -15 1 -23 20 -15 9 3 13 10 10 16 -8 13 -22 13 -30
-1z"/>
<path d="M1900 6460 c0 -5 9 -10 21 -10 11 0 17 5 14 10 -3 6 -13 10 -21 10
-8 0 -14 -4 -14 -10z"/>
<path d="M7690 6436 c0 -20 5 -26 21 -26 15 0 20 5 17 22 -5 34 -38 37 -38 4z"/>
<path d="M9070 6450 c0 -5 7 -10 15 -10 8 0 15 5 15 10 0 6 -7 10 -15 10 -8 0
-15 -4 -15 -10z"/>
<path d="M9255 6450 c-3 -5 3 -10 14 -10 12 0 21 5 21 10 0 6 -6 10 -14 10 -8
0 -18 -4 -21 -10z"/>
<path d="M11630 6436 c0 -20 5 -26 21 -26 15 0 20 5 17 22 -5 34 -38 37 -38 4z"/>
<path d="M7885 6420 c-3 -5 1 -10 9 -10 8 0 18 5 21 10 3 6 -1 10 -9 10 -8 0
-18 -4 -21 -10z"/>
<path d="M8935 6420 c-3 -5 1 -10 9 -10 8 0 18 5 21 10 3 6 -1 10 -9 10 -8 0
-18 -4 -21 -10z"/>
<path d="M11700 6390 c0 -5 9 -10 20 -10 11 0 20 5 20 10 0 6 -9 10 -20 10
-11 0 -20 -4 -20 -10z"/>
<path d="M8405 5670 c-8 -13 14 -52 26 -45 15 10 11 55 -5 55 -8 0 -18 -4 -21
-10z"/>
<path d="M7230 5675 c0 -8 5 -15 10 -15 6 0 10 7 10 15 0 8 -4 15 -10 15 -5 0
-10 -7 -10 -15z"/>
<path d="M10720 5690 c0 -22 1 -23 24 -14 23 9 20 34 -4 34 -13 0 -20 -7 -20
-20z"/>
<path d="M11045 5641 c-10 -17 12 -21 25 -6 10 12 10 15 -3 15 -9 0 -18 -4
-22 -9z"/>
<path d="M7580 5670 c0 -5 7 -10 15 -10 8 0 15 5 15 10 0 6 -7 10 -15 10 -8 0
-15 -4 -15 -10z"/>
<path d="M8310 5670 c0 -5 7 -10 15 -10 8 0 15 5 15 10 0 6 -7 10 -15 10 -8 0
-15 -4 -15 -10z"/>
<path d="M8500 5670 c0 -5 7 -10 15 -10 8 0 15 5 15 10 0 6 -7 10 -15 10 -8 0
-15 -4 -15 -10z"/>
<path d="M8666 5683 c-11 -11 -6 -23 9 -23 8 0 15 4 15 9 0 13 -16 22 -24 14z"/>
<path d="M8650 5600 c0 -5 9 -10 20 -10 11 0 20 5 20 10 0 6 -9 10 -20 10 -11
0 -20 -4 -20 -10z"/>
<path d="M8750 5670 c0 -5 7 -10 15 -10 8 0 15 5 15 10 0 6 -7 10 -15 10 -8 0
-15 -4 -15 -10z"/>
<path d="M8990 5670 c0 -5 7 -10 15 -10 8 0 15 5 15 10 0 6 -7 10 -15 10 -8 0
-15 -4 -15 -10z"/>
<path d="M9844 5665 c-4 -8 0 -22 7 -31 12 -14 14 -14 25 1 7 9 10 23 7 31 -7
19 -32 18 -39 -1z"/>
<path d="M10110 5670 c0 -5 7 -10 15 -10 8 0 15 5 15 10 0 6 -7 10 -15 10 -8
0 -15 -4 -15 -10z"/>
<path d="M10820 5670 c0 -5 7 -10 15 -10 8 0 15 5 15 10 0 6 -7 10 -15 10 -8
0 -15 -4 -15 -10z"/>
<path d="M11305 5641 c-6 -11 9 -23 19 -14 9 9 7 23 -3 23 -6 0 -12 -4 -16 -9z"/>
<path d="M1635 4310 c3 -5 21 -10 38 -10 24 0 28 3 17 10 -20 13 -63 13 -55 0z"/>
<path d="M1308 4193 c7 -3 16 -2 19 1 4 3 -2 6 -13 5 -11 0 -14 -3 -6 -6z"/>
<path d="M3610 3810 c0 -5 9 -10 21 -10 11 0 17 5 14 10 -3 6 -13 10 -21 10
-8 0 -14 -4 -14 -10z"/>
<path d="M3955 3731 c-8 -15 9 -21 69 -26 41 -3 60 0 71 11 8 9 15 17 15 20 0
8 -149 4 -155 -5z"/>
<path d="M4393 3703 c-18 -6 -16 -23 1 -23 17 0 30 16 19 23 -5 2 -14 2 -20 0z"/>
<path d="M3558 3613 c7 -3 16 -2 19 1 4 3 -2 6 -13 5 -11 0 -14 -3 -6 -6z"/>
<path d="M7708 3563 c-22 -2 -38 -10 -38 -17 0 -8 25 -13 85 -15 47 -1 85 1
85 5 0 4 -8 13 -17 20 -18 13 -41 14 -115 7z"/>
<path d="M3338 3473 c6 -2 18 -2 25 0 6 3 1 5 -13 5 -14 0 -19 -2 -12 -5z"/>
<path d="M2690 3450 c0 -6 7 -10 15 -10 8 0 15 2 15 4 0 2 -7 6 -15 10 -8 3
-15 1 -15 -4z"/>
<path d="M4490 3420 c-20 -12 26 -33 46 -22 9 5 13 11 8 14 -23 13 -42 15 -54
8z"/>
<path d="M2858 3403 c6 -2 18 -2 25 0 6 3 1 5 -13 5 -14 0 -19 -2 -12 -5z"/>
<path d="M7186 3403 c-4 -5 -13 -8 -18 -8 -6 0 -13 -6 -15 -12 -3 -8 4 -13 15
-13 31 0 52 11 52 26 0 15 -22 19 -34 7z"/>
<path d="M7980 3295 c0 -14 5 -25 10 -25 6 0 10 4 10 9 0 5 3 16 6 25 4 11 1
16 -10 16 -10 0 -16 -9 -16 -25z"/>
<path d="M7610 3299 c0 -5 5 -7 10 -4 6 3 10 8 10 11 0 2 -4 4 -10 4 -5 0 -10
-5 -10 -11z"/>
<path d="M1250 3270 c-13 -8 -12 -10 3 -10 9 0 17 5 17 10 0 12 -1 12 -20 0z"/>
<path d="M1318 3273 c6 -2 18 -2 25 0 6 3 1 5 -13 5 -14 0 -19 -2 -12 -5z"/>
<path d="M2407 3233 c-33 -2 -55 -8 -52 -13 4 -6 -4 -6 -20 0 -15 6 -70 10
-123 10 l-97 0 38 -34 c36 -33 47 -56 27 -56 -18 0 -10 -34 14 -62 18 -22 37
-30 92 -39 108 -18 174 -22 174 -11 0 6 13 13 29 17 16 3 37 15 47 26 9 10 34
22 54 25 31 5 36 9 33 28 -3 16 -19 28 -53 41 -30 11 -54 29 -64 47 -10 15
-23 27 -29 26 -7 -1 -38 -3 -70 -5z"/>
<path d="M2680 3120 c0 -23 29 -27 48 -8 19 19 14 28 -18 28 -23 0 -30 -4 -30
-20z"/>
<path d="M1759 3108 c-9 -7 -14 -18 -12 -25 3 -7 -3 -10 -15 -6 -13 3 -21 -2
-25 -16 -7 -27 8 -37 67 -45 28 -3 52 -10 55 -15 4 -4 28 -8 54 -7 26 0 51 -4
55 -10 11 -18 76 -33 96 -22 12 7 16 6 14 -3 -2 -7 2 -13 9 -14 6 0 15 -3 19
-7 9 -10 56 -10 69 0 23 16 4 52 -28 52 -12 0 -28 9 -35 20 -7 11 -18 20 -26
20 -8 0 -16 7 -20 15 -4 11 -20 15 -55 15 -27 0 -51 5 -53 11 -10 29 -142 58
-169 37z"/>
<path d="M7700 3030 c0 -5 5 -10 11 -10 5 0 7 5 4 10 -3 6 -8 10 -11 10 -2 0
-4 -4 -4 -10z"/>
<path d="M2235 2941 c-40 -9 -18 -17 68 -26 63 -7 66 -6 60 14 -4 18 -12 21
-52 20 -25 -1 -59 -4 -76 -8z"/>
<path d="M3270 2890 c0 -6 27 -10 60 -10 33 0 60 4 60 10 0 6 -27 10 -60 10
-33 0 -60 -4 -60 -10z"/>
<path d="M3880 2824 c0 -11 -12 -27 -27 -36 l-28 -17 27 -1 c26 0 26 -2 16
-30 -10 -29 -7 -155 4 -166 3 -3 9 27 13 65 7 69 8 71 35 71 26 0 27 -3 34
-61 3 -34 3 -66 -1 -73 -4 -8 -3 -8 6 0 7 6 13 27 14 47 1 19 5 33 8 31 10 -6
16 75 7 84 -13 13 4 52 23 52 25 0 24 17 -1 25 -11 3 -20 10 -20 15 0 5 -13 4
-30 -1 -16 -6 -30 -15 -30 -20 0 -4 7 -6 15 -3 8 4 15 1 15 -5 0 -15 -27 -14
-37 2 -4 6 -16 18 -25 26 -16 12 -18 11 -18 -5z m78 -68 c2 -10 -1 -23 -8 -30
-8 -8 -10 -7 -5 7 6 13 2 17 -19 17 -14 0 -26 4 -26 8 0 29 53 27 58 -2z m-43
-26 c3 -5 -1 -10 -10 -10 -9 0 -13 5 -10 10 3 6 8 10 10 10 2 0 7 -4 10 -10z"/>
<path d="M7345 2820 c-3 -5 -2 -10 4 -10 5 0 13 5 16 10 3 6 2 10 -4 10 -5 0
-13 -4 -16 -10z"/>
<path d="M2720 2791 c0 -6 -15 -12 -32 -12 -28 -1 -25 -3 19 -13 30 -6 59 -20
71 -33 19 -22 39 -32 28 -14 -3 5 0 11 7 14 23 8 175 8 180 0 7 -12 77 -4 77
8 0 5 -18 9 -40 9 -22 0 -40 4 -40 8 0 16 -67 31 -167 38 -74 5 -103 3 -103
-5z"/>
<path d="M3023 2763 c15 -2 39 -2 55 0 15 2 2 4 -28 4 -30 0 -43 -2 -27 -4z"/>
<path d="M5615 2760 c-4 -6 5 -10 20 -10 15 0 24 4 20 10 -3 6 -12 10 -20 10
-8 0 -17 -4 -20 -10z"/>
<path d="M3713 2743 c9 -2 23 -2 30 0 6 3 -1 5 -18 5 -16 0 -22 -2 -12 -5z"/>
<path d="M2625 2690 c3 -5 24 -10 46 -10 24 0 38 4 34 10 -3 6 -24 10 -46 10
-24 0 -38 -4 -34 -10z"/>
<path d="M2739 2692 c11 -8 11 -10 0 -14 -8 -3 34 -9 93 -13 58 -4 112 -5 120
-2 7 3 -17 6 -54 6 -39 1 -68 6 -70 12 -2 6 -26 13 -53 16 -34 3 -45 1 -36 -5z"/>
<path d="M2578 2683 c7 -3 16 -2 19 1 4 3 -2 6 -13 5 -11 0 -14 -3 -6 -6z"/>
<path d="M3033 2653 c9 -2 23 -2 30 0 6 3 -1 5 -18 5 -16 0 -22 -2 -12 -5z"/>
<path d="M2818 2643 c6 -2 18 -2 25 0 6 3 1 5 -13 5 -14 0 -19 -2 -12 -5z"/>
<path d="M2864 2641 c4 -5 0 -12 -6 -14 -7 -3 -1 -6 13 -6 15 -1 42 6 60 14
l34 14 -53 1 c-30 0 -51 -4 -48 -9z"/>
<path d="M3856 2489 c-4 -28 -5 -53 -3 -56 3 -2 8 19 12 47 4 28 5 53 2 56 -2
3 -7 -19 -11 -47z"/>
<path d="M3953 2480 c0 -30 2 -43 4 -27 2 15 2 39 0 55 -2 15 -4 2 -4 -28z"/>
<path d="M3830 2490 c0 -11 2 -20 4 -20 2 0 6 9 9 20 3 11 1 20 -4 20 -5 0 -9
-9 -9 -20z"/>
<path d="M7190 2501 c0 -5 9 -7 20 -4 11 3 20 7 20 9 0 2 -9 4 -20 4 -11 0
-20 -4 -20 -9z"/>
<path d="M6548 2493 c7 -3 16 -2 19 1 4 3 -2 6 -13 5 -11 0 -14 -3 -6 -6z"/>
<path d="M7018 2454 c-27 -32 1 -48 75 -42 34 3 101 2 150 -1 48 -3 87 -3 87
2 0 4 -8 17 -18 27 -16 17 -37 21 -148 26 -118 6 -130 5 -146 -12z"/>
<path d="M6970 2366 c0 -8 -9 -16 -20 -19 -11 -3 -20 -10 -20 -15 0 -16 62
-23 100 -12 19 6 54 10 77 10 87 0 28 34 -74 44 -50 4 -63 3 -63 -8z"/>
<path d="M7544 2360 c-32 -6 -44 -34 -19 -44 9 -3 25 -1 36 5 20 10 49 16 99
18 18 1 21 4 13 12 -12 12 -82 17 -129 9z"/>
<path d="M4957 2303 c4 -11 8 -12 11 -5 4 14 58 16 67 2 10 -17 45 -12 39 5
-5 11 -22 15 -65 15 -51 0 -58 -2 -52 -17z"/>
<path d="M7155 2290 c3 -5 13 -10 21 -10 8 0 14 5 14 10 0 6 -9 10 -21 10 -11
0 -17 -4 -14 -10z"/>
<path d="M5155 2275 l-30 -12 40 -11 c22 -5 58 -13 80 -17 37 -6 39 -5 24 10
-9 9 -29 18 -44 19 -15 2 -30 8 -34 14 -4 7 -16 6 -36 -3z"/>
<path d="M6650 2250 c0 -5 5 -10 10 -10 6 0 10 5 10 10 0 6 -4 10 -10 10 -5 0
-10 -4 -10 -10z"/>
<path d="M7358 2203 c7 -3 16 -2 19 1 4 3 -2 6 -13 5 -11 0 -14 -3 -6 -6z"/>
<path d="M506 2065 c-3 -9 0 -15 9 -15 9 0 12 6 9 15 -4 8 -7 15 -9 15 -2 0
-5 -7 -9 -15z"/>
<path d="M2990 2051 c0 -28 4 -41 14 -41 40 0 48 73 9 78 -21 3 -23 -1 -23
-37z"/>
<path d="M3085 2060 c-3 -5 1 -10 10 -10 9 0 13 5 10 10 -3 6 -8 10 -10 10 -2
0 -7 -4 -10 -10z"/>
<path d="M3088 2018 c9 -9 15 -9 24 0 9 9 7 12 -12 12 -19 0 -21 -3 -12 -12z"/>
<path d="M5536 2061 c-4 -7 -5 -15 -2 -18 9 -9 19 4 14 18 -4 11 -6 11 -12 0z"/>
<path d="M5614 2046 c-8 -22 3 -49 19 -43 6 2 12 14 12 27 0 27 -22 39 -31 16z"/>
<path d="M6502 2030 c0 -14 2 -19 5 -12 2 6 2 18 0 25 -3 6 -5 1 -5 -13z"/>
<path d="M6611 2024 c0 -11 3 -14 6 -6 3 7 2 16 -1 19 -3 4 -6 -2 -5 -13z"/>
<path d="M6570 2009 c0 -5 5 -7 10 -4 6 3 10 8 10 11 0 2 -4 4 -10 4 -5 0 -10
-5 -10 -11z"/>
<path d="M7492 2028 c2 -13 10 -23 18 -23 8 0 16 10 18 23 3 17 -2 22 -18 22
-16 0 -21 -5 -18 -22z"/>
<path d="M7588 2043 c7 -3 16 -2 19 1 4 3 -2 6 -13 5 -11 0 -14 -3 -6 -6z"/>
<path d="M7580 2010 c0 -5 4 -10 9 -10 6 0 13 5 16 10 3 6 -1 10 -9 10 -9 0
-16 -4 -16 -10z"/>
<path d="M8088 2043 c7 -3 16 -2 19 1 4 3 -2 6 -13 5 -11 0 -14 -3 -6 -6z"/>
<path d="M8080 2010 c0 -5 4 -10 9 -10 6 0 13 5 16 10 3 6 -1 10 -9 10 -9 0
-16 -4 -16 -10z"/>
<path d="M785 2060 c-3 -5 1 -10 10 -10 9 0 13 5 10 10 -3 6 -8 10 -10 10 -2
0 -7 -4 -10 -10z"/>
<path d="M780 2020 c0 -5 7 -10 15 -10 8 0 15 5 15 10 0 6 -7 10 -15 10 -8 0
-15 -4 -15 -10z"/>
<path d="M860 2060 c-12 -8 -10 -10 8 -10 13 0 20 4 17 10 -7 12 -6 12 -25 0z"/>
<path d="M858 2018 c9 -9 15 -9 24 0 9 9 7 12 -12 12 -19 0 -21 -3 -12 -12z"/>
<path d="M3164 2056 c-8 -22 3 -49 19 -43 6 2 12 14 12 27 0 27 -22 39 -31 16z"/>
<path d="M3240 2020 c0 -5 7 -10 15 -10 8 0 15 5 15 10 0 6 -7 10 -15 10 -8 0
-15 -4 -15 -10z"/>
<path d="M5855 2050 c-3 -5 1 -10 10 -10 9 0 13 5 10 10 -3 6 -8 10 -10 10 -2
0 -7 -4 -10 -10z"/>
<path d="M7302 2028 c5 -32 28 -35 28 -4 0 17 -5 26 -16 26 -10 0 -14 -7 -12
-22z"/>
<path d="M7388 2043 c7 -3 16 -2 19 1 4 3 -2 6 -13 5 -11 0 -14 -3 -6 -6z"/>
<path d="M7385 2010 c4 -6 11 -8 16 -5 14 9 11 15 -7 15 -8 0 -12 -5 -9 -10z"/>
<path d="M7720 2031 c0 -25 19 -38 31 -20 12 19 6 33 -14 37 -11 2 -17 -3 -17
-17z"/>
<path d="M7802 2028 c2 -13 8 -23 13 -23 6 0 11 10 13 23 2 15 -2 22 -13 22
-11 0 -15 -7 -13 -22z"/>
<path d="M7888 2043 c7 -3 16 -2 19 1 4 3 -2 6 -13 5 -11 0 -14 -3 -6 -6z"/>
<path d="M7885 2010 c3 -5 10 -10 16 -10 5 0 9 5 9 10 0 6 -7 10 -16 10 -8 0
-12 -4 -9 -10z"/>
<path d="M620 1530 c0 -46 2 -50 23 -49 16 1 18 2 5 6 -13 3 -18 15 -18 43 0
32 4 39 23 43 19 4 18 4 -5 6 -27 1 -28 -1 -28 -49z"/>
<path d="M1041 1564 c0 -11 3 -14 6 -6 3 7 2 16 -1 19 -3 4 -6 -2 -5 -13z"/>
<path d="M689 1538 c4 -28 6 -29 9 -9 2 13 0 27 -5 32 -6 6 -7 -3 -4 -23z"/>
<path d="M801 1533 c-1 -23 3 -44 7 -47 4 -2 6 12 4 32 -5 56 -10 62 -11 15z"/>
<path d="M740 1556 c0 -2 7 -7 16 -10 8 -3 12 -2 9 4 -6 10 -25 14 -25 6z"/>
<path d="M960 1545 c-6 -8 -10 -22 -7 -32 4 -14 5 -14 6 4 0 12 9 27 19 32 9
6 12 11 6 11 -6 0 -17 -7 -24 -15z"/>
<path d="M1085 1550 c-3 -6 1 -7 9 -4 18 7 21 14 7 14 -6 0 -13 -4 -16 -10z"/>
<path d="M886 1537 c3 -10 9 -15 12 -12 3 3 0 11 -7 18 -10 9 -11 8 -5 -6z"/>
<path d="M1123 1515 c0 -22 2 -30 4 -17 2 12 2 30 0 40 -3 9 -5 -1 -4 -23z"/>
<path d="M1153 1515 c0 -22 2 -30 4 -17 2 12 2 30 0 40 -3 9 -5 -1 -4 -23z"/>
<path d="M1205 1539 c-4 -6 -5 -12 -2 -15 2 -3 7 2 10 11 7 17 1 20 -8 4z"/>
<path d="M1466 1537 c3 -10 9 -15 12 -12 3 3 0 11 -7 18 -10 9 -11 8 -5 -6z"/>
<path d="M842 1515 c0 -16 2 -22 5 -12 2 9 2 23 0 30 -3 6 -5 -1 -5 -18z"/>
<path d="M1422 1515 c0 -16 2 -22 5 -12 2 9 2 23 0 30 -3 6 -5 -1 -5 -18z"/>
<path d="M1075 1510 c-9 -15 4 -30 23 -29 15 1 14 2 -1 6 -11 3 -16 11 -13 19
6 16 0 19 -9 4z"/>
<path d="M720 1501 c0 -10 19 -25 25 -20 1 2 -3 10 -11 17 -8 7 -14 8 -14 3z"/>
<path d="M1357 1489 c7 -7 15 -10 18 -7 3 3 -2 9 -12 12 -14 6 -15 5 -6 -5z"/>
<path d="M3128 1573 c6 -2 18 -2 25 0 6 3 1 5 -13 5 -14 0 -19 -2 -12 -5z"/>
<path d="M3499 1563 c-4 -67 -4 -68 -26 -67 -12 0 -20 -3 -17 -8 3 -4 16 -7
29 -6 23 2 25 7 25 50 0 45 -9 69 -11 31z"/>
<path d="M3290 1532 c0 -22 3 -43 8 -45 9 -6 7 71 -2 80 -3 3 -6 -12 -6 -35z"/>
<path d="M4011 1533 c-1 -23 3 -44 7 -47 4 -2 6 12 4 32 -5 56 -10 62 -11 15z"/>
<path d="M3230 1556 c0 -2 7 -7 16 -10 8 -3 12 -2 9 4 -6 10 -25 14 -25 6z"/>
<path d="M3650 1545 c-6 -8 -10 -22 -7 -32 4 -14 5 -14 6 4 0 12 9 27 19 32 9
6 12 11 6 11 -6 0 -17 -7 -24 -15z"/>
<path d="M3376 1537 c3 -10 9 -15 12 -12 3 3 0 11 -7 18 -10 9 -11 8 -5 -6z"/>
<path d="M3801 1503 c1 -53 6 -49 11 10 2 20 0 37 -4 37 -4 0 -8 -21 -7 -47z"/>
<path d="M3965 1539 c-4 -6 -5 -12 -2 -15 2 -3 7 2 10 11 7 17 1 20 -8 4z"/>
<path d="M3332 1515 c0 -16 2 -22 5 -12 2 9 2 23 0 30 -3 6 -5 -1 -5 -18z"/>
<path d="M3177 1511 c-4 -17 -3 -21 5 -13 5 5 8 16 6 23 -3 8 -7 3 -11 -10z"/>
<path d="M3885 1510 c-8 -13 3 -30 18 -30 8 0 7 3 -2 9 -7 5 -10 14 -7 20 4 6
5 11 2 11 -3 0 -8 -4 -11 -10z"/>
<path d="M3210 1501 c0 -10 19 -25 25 -20 1 2 -3 10 -11 17 -8 7 -14 8 -14 3z"/>
<path d="M3538 1488 c5 -5 16 -8 23 -6 8 3 3 7 -10 11 -17 4 -21 3 -13 -5z"/>
<path d="M3737 1489 c7 -7 15 -10 18 -7 3 3 -2 9 -12 12 -14 6 -15 5 -6 -5z"/>
<path d="M3835 1490 c-16 -7 -17 -9 -3 -9 9 -1 20 4 23 9 7 11 7 11 -20 0z"/>
<path d="M3128 1483 c6 -2 18 -2 25 0 6 3 1 5 -13 5 -14 0 -19 -2 -12 -5z"/>
<path d="M5688 1563 c7 -3 16 -2 19 1 4 3 -2 6 -13 5 -11 0 -14 -3 -6 -6z"/>
<path d="M5672 1508 c-20 -20 -14 -28 21 -27 31 2 31 2 4 6 -23 4 -26 7 -16
19 14 17 8 19 -9 2z"/>
<path d="M6528 1563 c7 -3 16 -2 19 1 4 3 -2 6 -13 5 -11 0 -14 -3 -6 -6z"/>
<path d="M6502 1530 c0 -14 2 -19 5 -12 2 6 2 18 0 25 -3 6 -5 1 -5 -13z"/>
<path d="M6552 1525 c0 -16 2 -22 5 -12 2 9 2 23 0 30 -3 6 -5 -1 -5 -18z"/>
<path d="M6518 1488 c5 -5 16 -8 23 -6 8 3 3 7 -10 11 -17 4 -21 3 -13 -5z"/>
<path d="M7479 1554 c-3 -20 3 -59 9 -66 4 -4 7 9 6 28 -1 31 -12 60 -15 38z"/>
<path d="M7593 1543 c-8 -3 -12 -21 -11 -46 1 -41 1 -41 5 -7 2 19 11 41 20
48 17 12 9 15 -14 5z"/>
<path d="M7383 1513 c15 -2 37 -2 50 0 12 2 0 4 -28 4 -27 0 -38 -2 -22 -4z"/>
<path d="M7673 1513 c9 -2 23 -2 30 0 6 3 -1 5 -18 5 -16 0 -22 -2 -12 -5z"/>
<path d="M7630 1502 c0 -6 -8 -13 -17 -15 -16 -4 -16 -5 -1 -6 18 -1 34 16 24
26 -3 4 -6 1 -6 -5z"/>
<path d="M7667 1488 c2 -5 10 -8 18 -8 8 0 16 3 18 8 3 4 -5 7 -18 7 -13 0
-21 -3 -18 -7z"/>
<path d="M10660 1530 c0 -5 7 -10 15 -10 8 0 15 5 15 10 0 6 -7 10 -15 10 -8
0 -15 -4 -15 -10z"/>
<path d="M10660 1500 c0 -5 6 -10 14 -10 8 0 18 5 21 10 3 6 -3 10 -14 10 -12
0 -21 -4 -21 -10z"/>
<path d="M10900 1530 c0 -5 7 -10 15 -10 8 0 15 5 15 10 0 6 -7 10 -15 10 -8
0 -15 -4 -15 -10z"/>
<path d="M10895 1500 c3 -5 13 -10 21 -10 8 0 14 5 14 10 0 6 -9 10 -21 10
-11 0 -17 -4 -14 -10z"/>
</g>
</svg>
